<?xml version="1.0" encoding="UTF-8"?>
<svg xmlns="http://www.w3.org/2000/svg" version="1.1" viewBox="0 0 1366 768">
  <defs>
    <style>
      .cls-1 {
        fill: #06d453;
      }

      .cls-1, .cls-2, .cls-3 {
        stroke-width: 0px;
      }

      .cls-2 {
        fill: #4cc3ff;
      }

      .cls-3 {
        fill: #068953;
      }
    </style>
  </defs>
  <g id="pond">
    <path class="cls-2" d="M188.58,429.49h460.04s17.55-1.9,19.45,2.85-.45,1.42-13.99,9.49-23.99,14.24-38.23,27.53c-14.24,13.29-37.5,25.64-59.34,24.69-21.84-.95-34.18-3.8-62.19-8.55-28.01-4.75-65.51-11.87-96.37-5.22s-69.79,9.49-85.45,7.6-58.87-19.46-58.87-19.46c0,0-17.57-6.17-27.53-3.8s-29.22-.8-42.38-3.01c-13.16-2.21-17.91-8.38-17.91-8.38,0,0-22.79-5.93,0-14.83l22.79-8.91Z"/>
  </g>
  <g id="light_reeds" data-name="light reeds">
    <polyline class="cls-1" points="283.94 448.93 267.53 397.69 276.12 448.14 256.48 418.49 269.07 445.01 257.4 437.95 262.57 446.78 280.46 448.58"/>
    <polyline class="cls-1" points="524.63 438.01 508.22 386.77 516.81 437.22 497.17 407.57 509.76 434.09 498.09 427.03 503.26 435.86 521.15 437.66"/>
  </g>
  <g id="dark_reeds" data-name="dark reeds">
    <g>
      <polyline class="cls-3" points="521.97 438.55 556.88 335 538.41 436.89 579.91 376.87 553.24 430.51 577.8 416.17 566.87 434.02 529.29 437.81"/>
      <polyline class="cls-3" points="270.24 438.01 286.66 386.77 278.07 437.22 297.71 407.57 285.12 434.09 296.78 427.03 291.61 435.86 273.72 437.66"/>
    </g>
    <g>
      <polyline class="cls-3" points="521.97 438.55 556.88 335 538.41 436.89 579.91 376.87 553.24 430.51 577.8 416.17 566.87 434.02 529.29 437.81"/>
      <polyline class="cls-3" points="270.24 438.01 286.66 386.77 278.07 437.22 297.71 407.57 285.12 434.09 296.78 427.03 291.61 435.86 273.72 437.66"/>
    </g>
  </g>
  <g id="pads">
    <g>
      <path class="cls-3" d="M566.4,457.17l-.64-15.79c-2.08.09-4.17.6-6.15,1.57-7.78,3.8-11,13.18-7.21,20.95s13.18,11,20.95,7.21c7.78-3.8,11-13.18,7.21-20.95-.34-.7-.73-1.36-1.15-1.98l-13,8.99Z"/>
      <path class="cls-3" d="M504.4,452.39l-15.39-3.59c-.46,2.03-.53,4.18-.12,6.35,1.58,8.51,9.77,14.12,18.27,12.53,8.51-1.58,14.12-9.77,12.53-18.27-1.58-8.51-9.77-14.12-18.27-12.53-.76.14-1.5.34-2.21.58l5.2,14.93Z"/>
      <path class="cls-3" d="M421.24,449.28l4.62,15.11c1.98-.62,3.88-1.64,5.55-3.08,6.56-5.64,7.3-15.53,1.66-22.09-5.64-6.56-15.53-7.3-22.09-1.66-6.56,5.64-7.3,15.53-1.66,22.09.51.59,1.05,1.13,1.62,1.62l10.3-11.99Z"/>
      <path class="cls-3" d="M364.4,446.12l-14.29,6.76c.9,1.87,2.18,3.6,3.85,5.05,6.53,5.68,16.43,4.98,22.1-1.55s4.98-16.43-1.55-22.1-16.43-4.98-22.1,1.55c-.51.59-.96,1.2-1.37,1.83l13.36,8.46Z"/>
      <path class="cls-3" d="M311.38,457.03l13.29-8.55c-1.13-1.74-2.63-3.29-4.47-4.51-7.21-4.78-16.93-2.81-21.71,4.4s-2.81,16.93,4.4,21.71,16.93,2.81,21.71-4.4c.43-.65.8-1.31,1.12-2l-14.34-6.66Z"/>
      <path class="cls-3" d="M247.36,445.98l14.47,6.35c.83-1.91,1.29-4.01,1.29-6.22,0-8.65-7.01-15.67-15.67-15.67s-15.67,7.01-15.67,15.67,7.01,15.67,15.67,15.67c.78,0,1.54-.06,2.28-.17l-2.38-15.63Z"/>
    </g>
    <g>
      <path class="cls-3" d="M566.4,457.17l-.64-15.79c-2.08.09-4.17.6-6.15,1.57-7.78,3.8-11,13.18-7.21,20.95s13.18,11,20.95,7.21c7.78-3.8,11-13.18,7.21-20.95-.34-.7-.73-1.36-1.15-1.98l-13,8.99Z"/>
      <path class="cls-3" d="M504.4,452.39l-15.39-3.59c-.46,2.03-.53,4.18-.12,6.35,1.58,8.51,9.77,14.12,18.27,12.53,8.51-1.58,14.12-9.77,12.53-18.27-1.58-8.51-9.77-14.12-18.27-12.53-.76.14-1.5.34-2.21.58l5.2,14.93Z"/>
      <path class="cls-3" d="M421.24,449.28l4.62,15.11c1.98-.62,3.88-1.64,5.55-3.08,6.56-5.64,7.3-15.53,1.66-22.09-5.64-6.56-15.53-7.3-22.09-1.66-6.56,5.64-7.3,15.53-1.66,22.09.51.59,1.05,1.13,1.62,1.62l10.3-11.99Z"/>
      <path class="cls-3" d="M364.4,446.12l-14.29,6.76c.9,1.87,2.18,3.6,3.85,5.05,6.53,5.68,16.43,4.98,22.1-1.55s4.98-16.43-1.55-22.1-16.43-4.98-22.1,1.55c-.51.59-.96,1.2-1.37,1.83l13.36,8.46Z"/>
      <path class="cls-3" d="M311.38,457.03l13.29-8.55c-1.13-1.74-2.63-3.29-4.47-4.51-7.21-4.78-16.93-2.81-21.71,4.4s-2.81,16.93,4.4,21.71,16.93,2.81,21.71-4.4c.43-.65.8-1.31,1.12-2l-14.34-6.66Z"/>
      <path class="cls-3" d="M247.36,445.98l14.47,6.35c.83-1.91,1.29-4.01,1.29-6.22,0-8.65-7.01-15.67-15.67-15.67s-15.67,7.01-15.67,15.67,7.01,15.67,15.67,15.67c.78,0,1.54-.06,2.28-.17l-2.38-15.63Z"/>
    </g>
  </g>
</svg>