<?xml version="1.0" encoding="UTF-8"?>
<svg xmlns="http://www.w3.org/2000/svg" version="1.1" viewBox="0 0 1366 768">
  <defs>
    <style>
      .cls-1, .cls-2, .cls-3, .cls-4, .cls-5 {
        stroke: #231f20;
        stroke-miterlimit: 10;
      }

      .cls-1, .cls-6, .cls-4 {
        fill: #70c4a2;
      }

      .cls-1, .cls-3, .cls-5 {
        stroke-linecap: round;
      }

      .cls-2 {
        fill: #0072a2;
      }

      .cls-6, .cls-7, .cls-8, .cls-9 {
        stroke-width: 0px;
      }

      .cls-3 {
        fill: #fff;
      }

      .cls-7 {
        fill: #06d453;
      }

      .cls-8 {
        fill: #4cc3ff;
      }

      .cls-5 {
        fill: #000;
      }

      .cls-9 {
        fill: #068953;
      }
    </style>
  </defs>
  <g id="pond">
    <path class="cls-8" d="M188.58,429.49h460.04s17.55-1.9,19.45,2.85-.45,1.42-13.99,9.49-23.99,14.24-38.23,27.53c-14.24,13.29-37.5,25.64-59.34,24.69-21.84-.95-34.18-3.8-62.19-8.55-28.01-4.75-65.51-11.87-96.37-5.22s-69.79,9.49-85.45,7.6-58.87-19.46-58.87-19.46c0,0-17.57-6.17-27.53-3.8s-29.22-.8-42.38-3.01c-13.16-2.21-17.91-8.38-17.91-8.38,0,0-22.79-5.93,0-14.83l22.79-8.91Z"/>
  </g>
  <g id="light_reeds" data-name="light reeds">
    <polyline class="cls-7" points="283.94 448.93 267.53 397.69 276.12 448.14 256.48 418.49 269.07 445.01 257.4 437.95 262.57 446.78 280.46 448.58"/>
    <polyline class="cls-7" points="524.63 438.01 508.22 386.77 516.81 437.22 497.17 407.57 509.76 434.09 498.09 427.03 503.26 435.86 521.15 437.66"/>
  </g>
  <g id="dark_reeds" data-name="dark reeds">
    <g>
      <polyline class="cls-9" points="521.97 438.55 556.88 335 538.41 436.89 579.91 376.87 553.24 430.51 577.8 416.17 566.87 434.02 529.29 437.81"/>
      <polyline class="cls-9" points="270.24 438.01 286.66 386.77 278.07 437.22 297.71 407.57 285.12 434.09 296.78 427.03 291.61 435.86 273.72 437.66"/>
    </g>
    <g>
      <polyline class="cls-9" points="521.97 438.55 556.88 335 538.41 436.89 579.91 376.87 553.24 430.51 577.8 416.17 566.87 434.02 529.29 437.81"/>
      <polyline class="cls-9" points="270.24 438.01 286.66 386.77 278.07 437.22 297.71 407.57 285.12 434.09 296.78 427.03 291.61 435.86 273.72 437.66"/>
    </g>
  </g>
  <g id="pads">
    <g>
      <path class="cls-9" d="M566.4,457.17l-.64-15.79c-2.08.09-4.17.6-6.15,1.57-7.78,3.8-11,13.18-7.21,20.95s13.18,11,20.95,7.21c7.78-3.8,11-13.18,7.21-20.95-.34-.7-.73-1.36-1.15-1.98l-13,8.99Z"/>
      <path class="cls-9" d="M504.4,452.39l-15.39-3.59c-.46,2.03-.53,4.18-.12,6.35,1.58,8.51,9.77,14.12,18.27,12.53,8.51-1.58,14.12-9.77,12.53-18.27-1.58-8.51-9.77-14.12-18.27-12.53-.76.14-1.5.34-2.21.58l5.2,14.93Z"/>
      <path class="cls-9" d="M421.24,449.28l4.62,15.11c1.98-.62,3.88-1.64,5.55-3.08,6.56-5.64,7.3-15.53,1.66-22.09-5.64-6.56-15.53-7.3-22.09-1.66-6.56,5.64-7.3,15.53-1.66,22.09.51.59,1.05,1.13,1.62,1.62l10.3-11.99Z"/>
      <path class="cls-9" d="M364.4,446.12l-14.29,6.76c.9,1.87,2.18,3.6,3.85,5.05,6.53,5.68,16.43,4.98,22.1-1.55s4.98-16.43-1.55-22.1-16.43-4.98-22.1,1.55c-.51.59-.96,1.2-1.37,1.83l13.36,8.46Z"/>
      <path class="cls-9" d="M311.38,457.03l13.29-8.55c-1.13-1.74-2.63-3.29-4.47-4.51-7.21-4.78-16.93-2.81-21.71,4.4s-2.81,16.93,4.4,21.71,16.93,2.81,21.71-4.4c.43-.65.8-1.31,1.12-2l-14.34-6.66Z"/>
      <path class="cls-9" d="M247.36,445.98l14.47,6.35c.83-1.91,1.29-4.01,1.29-6.22,0-8.65-7.01-15.67-15.67-15.67s-15.67,7.01-15.67,15.67,7.01,15.67,15.67,15.67c.78,0,1.54-.06,2.28-.17l-2.38-15.63Z"/>
    </g>
    <g>
      <path class="cls-9" d="M566.4,457.17l-.64-15.79c-2.08.09-4.17.6-6.15,1.57-7.78,3.8-11,13.18-7.21,20.95s13.18,11,20.95,7.21c7.78-3.8,11-13.18,7.21-20.95-.34-.7-.73-1.36-1.15-1.98l-13,8.99Z"/>
      <path class="cls-9" d="M504.4,452.39l-15.39-3.59c-.46,2.03-.53,4.18-.12,6.35,1.58,8.51,9.77,14.12,18.27,12.53,8.51-1.58,14.12-9.77,12.53-18.27-1.58-8.51-9.77-14.12-18.27-12.53-.76.14-1.5.34-2.21.58l5.2,14.93Z"/>
      <path class="cls-9" d="M421.24,449.28l4.62,15.11c1.98-.62,3.88-1.64,5.55-3.08,6.56-5.64,7.3-15.53,1.66-22.09-5.64-6.56-15.53-7.3-22.09-1.66-6.56,5.64-7.3,15.53-1.66,22.09.51.59,1.05,1.13,1.62,1.62l10.3-11.99Z"/>
      <path class="cls-9" d="M364.4,446.12l-14.29,6.76c.9,1.87,2.18,3.6,3.85,5.05,6.53,5.68,16.43,4.98,22.1-1.55s4.98-16.43-1.55-22.1-16.43-4.98-22.1,1.55c-.51.59-.96,1.2-1.37,1.83l13.36,8.46Z"/>
      <path class="cls-9" d="M311.38,457.03l13.29-8.55c-1.13-1.74-2.63-3.29-4.47-4.51-7.21-4.78-16.93-2.81-21.71,4.4s-2.81,16.93,4.4,21.71,16.93,2.81,21.71-4.4c.43-.65.8-1.31,1.12-2l-14.34-6.66Z"/>
      <path class="cls-9" d="M247.36,445.98l14.47,6.35c.83-1.91,1.29-4.01,1.29-6.22,0-8.65-7.01-15.67-15.67-15.67s-15.67,7.01-15.67,15.67,7.01,15.67,15.67,15.67c.78,0,1.54-.06,2.28-.17l-2.38-15.63Z"/>
    </g>
  </g>
  <g id="frogs">
    <g>
      <path class="cls-1" d="M564.11,449.33l-1.29-2.9s3-.91,3-1.99c0-1.09,0-.54-1.5-1.81s-9.01-5.98-9.01-5.98c0,0-6.73-2.54-7.55-2.36-.82.18-11.55,0-11.55,0,0,0-4.08-1.8-6.65-3.43-2.57-1.63-9.56-5.86-10.46-6.1s-4.55-3.57-4.55-3.57c0,0-1.29,1.38-3.86,1.08s-2.79,1.53-2.79,1.53l-8.12.96s-3.6,2.11-1.6,4.83,12.08,11.6,12.08,11.6l3.22,4.35s-5.15-.18-7.51,1.27c-2.36,1.45-5.15,2.54-2.57,2.54s4.29.36,5.15,0-4.93,1.99-4.93,1.99c0,0-2.57,1.45-1.29,1.99,1.29.54,4.08-1.09,5.15-1.27s2.36-1.45,3.43-1.45-.43,2.72-.43,2.72c0,0,3.22-1.99,4.93-1.99s15.2,7.07,16.29,7.07,26.4-.18,30.05-5.07"/>
      <path class="cls-1" d="M532.79,458.4s5.79-13.96,19.74-11.06c13.94,2.9,15.43,3.26,15.43,3.26,0,0,.66,2.17-1.06,4.26s-8.15,6.03-9.01,6.5c-.86.47-11.58,1.2-15.45,1.74-3.86.54-16.52,3.62-16.52,3.62l2.36-2.9-7.51,1.27s-2.91-.36-1.67-.91,9.39-2.83,9.39-2.83l-3-.95,7.33-.93-.03-1.09Z"/>
      <path class="cls-1" d="M520.78,443.81s-5.79,1-4.29,5.53c1.5,4.53,2.62,5.53,2.62,5.53l-7.77,3.53-9.01-1.56s-3.65.11,0,1.56l3.65,1.45-8.4-.91s-2.28.59-1.66,1.47,9.41.95,9.41.95l-7.15,1.2s-.51,1.81,1.6,1.81,11.34,0,11.34,0c0,0,4.08-.18,6.22-1.09s9.22-3.81,9.98-4.89-6.54-14.59-6.54-14.59Z"/>
      <ellipse class="cls-1" cx="513.99" cy="438.19" rx="5.15" ry="4.35"/>
      <ellipse class="cls-3" cx="509.92" cy="430.47" rx="5.15" ry="4.35"/>
      <ellipse class="cls-5" cx="510.08" cy="430.18" rx="2.12" ry="1.79"/>
      <ellipse class="cls-6" cx="509.51" cy="430.93" rx="2.68" ry=".46"/>
      <ellipse class="cls-6" cx="502.47" cy="428.39" rx="2.68" ry=".46"/>
      <path class="cls-4" d="M512.2,430.93s9.87,5.54,10.08,5.72,13.94,4.35,13.94,4.35c0,0,9.79.91,11.55,2.81"/>
      <ellipse class="cls-2" cx="538.85" cy="444.31" rx="1.61" ry="1.36"/>
      <ellipse class="cls-2" cx="535.63" cy="443.08" rx="1.61" ry="1.36"/>
      <ellipse class="cls-2" cx="532.82" cy="441.72" rx="1.61" ry="1.36"/>
      <ellipse class="cls-2" cx="529.98" cy="441.72" rx="1.61" ry="1.36"/>
      <ellipse class="cls-2" cx="527.32" cy="440.36" rx="1.61" ry="1.36"/>
      <ellipse class="cls-2" cx="525.71" cy="441.72" rx="1.61" ry="1.36"/>
      <ellipse class="cls-2" cx="527.32" cy="443.81" rx="1.61" ry="1.36"/>
      <ellipse class="cls-2" cx="528.93" cy="445.17" rx="1.61" ry="1.36"/>
      <ellipse class="cls-2" cx="532.28" cy="445.66" rx="1.61" ry="1.36"/>
    </g>
    <g>
      <path class="cls-1" d="M661.88,428.72l-1.29-2.9s3-.91,3-1.99c0-1.09,0-.54-1.5-1.81s-9.01-5.98-9.01-5.98c0,0-6.73-2.54-7.55-2.36-.82.18-11.55,0-11.55,0,0,0-4.08-1.8-6.65-3.43-2.57-1.63-9.56-5.86-10.46-6.1s-4.55-3.57-4.55-3.57c0,0-1.29,1.38-3.86,1.08s-2.79,1.53-2.79,1.53l-8.12.96s-3.6,2.11-1.6,4.83,12.08,11.6,12.08,11.6l3.22,4.35s-5.15-.18-7.51,1.27c-2.36,1.45-5.15,2.54-2.57,2.54s4.29.36,5.15,0-4.93,1.99-4.93,1.99c0,0-2.57,1.45-1.29,1.99,1.29.54,4.08-1.09,5.15-1.27s2.36-1.45,3.43-1.45-.43,2.72-.43,2.72c0,0,3.22-1.99,4.93-1.99s15.2,7.07,16.29,7.07,26.4-.18,30.05-5.07"/>
      <path class="cls-1" d="M630.56,437.78s5.79-13.96,19.74-11.06c13.94,2.9,15.43,3.26,15.43,3.26,0,0,.66,2.17-1.06,4.26-1.72,2.08-8.15,6.03-9.01,6.5-.86.47-11.58,1.2-15.45,1.74-3.86.54-16.52,3.62-16.52,3.62l2.36-2.9-7.51,1.27s-2.91-.36-1.67-.91,9.39-2.83,9.39-2.83l-3-.95,7.33-.93-.03-1.09Z"/>
      <path class="cls-1" d="M618.54,423.19s-5.79,1-4.29,5.53c1.5,4.53,2.62,5.53,2.62,5.53l-7.77,3.53-9.01-1.56s-3.65.11,0,1.56l3.65,1.45-8.4-.91s-2.28.59-1.66,1.47,9.41.95,9.41.95l-7.15,1.2s-.51,1.81,1.6,1.81,11.34,0,11.34,0c0,0,4.08-.18,6.22-1.09s9.22-3.81,9.98-4.89-6.54-14.59-6.54-14.59Z"/>
      <ellipse class="cls-1" cx="611.76" cy="417.57" rx="5.15" ry="4.35"/>
      <ellipse class="cls-3" cx="607.68" cy="409.85" rx="5.15" ry="4.35"/>
      <ellipse class="cls-5" cx="607.84" cy="409.57" rx="2.12" ry="1.79"/>
      <ellipse class="cls-6" cx="607.28" cy="410.31" rx="2.68" ry=".46"/>
      <ellipse class="cls-6" cx="600.23" cy="407.78" rx="2.68" ry=".46"/>
      <path class="cls-4" d="M609.96,410.31s9.87,5.54,10.08,5.72,13.94,4.35,13.94,4.35c0,0,9.79.91,11.55,2.81"/>
      <ellipse class="cls-2" cx="636.62" cy="423.69" rx="1.61" ry="1.36"/>
      <ellipse class="cls-2" cx="633.4" cy="422.46" rx="1.61" ry="1.36"/>
      <ellipse class="cls-2" cx="630.59" cy="421.11" rx="1.61" ry="1.36"/>
      <ellipse class="cls-2" cx="627.75" cy="421.11" rx="1.61" ry="1.36"/>
      <ellipse class="cls-2" cx="625.09" cy="419.75" rx="1.61" ry="1.36"/>
      <ellipse class="cls-2" cx="623.48" cy="421.11" rx="1.61" ry="1.36"/>
      <ellipse class="cls-2" cx="625.09" cy="423.19" rx="1.61" ry="1.36"/>
      <ellipse class="cls-2" cx="626.69" cy="424.55" rx="1.61" ry="1.36"/>
      <ellipse class="cls-2" cx="630.05" cy="425.05" rx="1.61" ry="1.36"/>
    </g>
    <g>
      <path class="cls-1" d="M181.97,438.11l1.09-2.59s-2.55-.81-2.55-1.78,0-.48,1.28-1.62c1.28-1.13,7.65-5.33,7.65-5.33,0,0,5.72-2.26,6.41-2.1s9.81,0,9.81,0c0,0,3.46-1.61,5.65-3.06s8.12-5.23,8.89-5.44,3.87-3.19,3.87-3.19c0,0,1.09,1.23,3.28.97,2.19-.26,2.37,1.37,2.37,1.37l6.9.85s3.06,1.89,1.36,4.31-10.26,10.34-10.26,10.34l-2.73,3.88s4.37-.16,6.38,1.13,4.37,2.26,2.19,2.26-3.65.32-4.37,0,4.19,1.78,4.19,1.78c0,0,2.19,1.29,1.09,1.78s-3.46-.97-4.37-1.13-2-1.29-2.92-1.29.36,2.42.36,2.42c0,0-2.73-1.78-4.19-1.78s-12.91,6.3-13.84,6.3-22.43-.16-25.53-4.53"/>
      <path class="cls-1" d="M208.58,446.2s-4.92-12.45-16.77-9.86c-11.85,2.59-13.11,2.91-13.11,2.91,0,0-.56,1.94.9,3.8s6.93,5.38,7.65,5.8,9.84,1.07,13.12,1.56c3.28.48,14.03,3.23,14.03,3.23l-2-2.59,6.38,1.13s2.47-.32,1.42-.81-7.98-2.52-7.98-2.52l2.55-.85-6.22-.83.03-.97Z"/>
      <path class="cls-1" d="M218.79,433.18s4.92.89,3.65,4.93-2.23,4.93-2.23,4.93l6.6,3.15,7.65-1.39s3.1.1,0,1.39l-3.1,1.29,7.13-.81s1.94.52,1.41,1.31-8,.85-8,.85l6.07,1.07s.43,1.62-1.36,1.62h-9.63s-3.46-.16-5.29-.97-7.84-3.39-8.47-4.36,5.56-13.01,5.56-13.01Z"/>
      <ellipse class="cls-1" cx="224.55" cy="428.17" rx="4.37" ry="3.88"/>
      <ellipse class="cls-3" cx="228.02" cy="421.29" rx="4.37" ry="3.88"/>
      <ellipse class="cls-5" cx="227.88" cy="421.04" rx="1.8" ry="1.6"/>
      <ellipse class="cls-6" cx="228.36" cy="421.7" rx="2.28" ry=".41"/>
      <ellipse class="cls-6" cx="234.35" cy="419.44" rx="2.28" ry=".41"/>
      <path class="cls-4" d="M226.08,421.7s-8.38,4.94-8.57,5.1-11.85,3.88-11.85,3.88c0,0-8.32.81-9.81,2.51"/>
      <ellipse class="cls-2" cx="203.43" cy="433.63" rx="1.37" ry="1.21"/>
      <ellipse class="cls-2" cx="206.17" cy="432.54" rx="1.37" ry="1.21"/>
      <ellipse class="cls-2" cx="208.56" cy="431.33" rx="1.37" ry="1.21"/>
      <ellipse class="cls-2" cx="210.97" cy="431.33" rx="1.37" ry="1.21"/>
      <ellipse class="cls-2" cx="213.23" cy="430.11" rx="1.37" ry="1.21"/>
      <ellipse class="cls-2" cx="214.6" cy="431.33" rx="1.37" ry="1.21"/>
      <ellipse class="cls-2" cx="213.23" cy="433.18" rx="1.37" ry="1.21"/>
      <ellipse class="cls-2" cx="211.86" cy="434.4" rx="1.37" ry="1.21"/>
      <ellipse class="cls-2" cx="209.02" cy="434.84" rx="1.37" ry="1.21"/>
    </g>
    <g>
      <path class="cls-1" d="M309.12,430.65l1.09-2.59s-2.55-.81-2.55-1.78,0-.48,1.28-1.62c1.28-1.13,7.65-5.33,7.65-5.33,0,0,5.72-2.26,6.41-2.1s9.81,0,9.81,0c0,0,3.46-1.61,5.65-3.06s8.12-5.23,8.89-5.44,3.87-3.19,3.87-3.19c0,0,1.09,1.23,3.28.97,2.19-.26,2.37,1.37,2.37,1.37l6.9.85s3.06,1.89,1.36,4.31-10.26,10.34-10.26,10.34l-2.73,3.88s4.37-.16,6.38,1.13,4.37,2.26,2.19,2.26-3.65.32-4.37,0,4.19,1.78,4.19,1.78c0,0,2.19,1.29,1.09,1.78s-3.46-.97-4.37-1.13-2-1.29-2.92-1.29.36,2.42.36,2.42c0,0-2.73-1.78-4.19-1.78s-12.91,6.3-13.84,6.3-22.43-.16-25.53-4.53"/>
      <path class="cls-1" d="M335.73,438.73s-4.92-12.45-16.77-9.86c-11.85,2.59-13.11,2.91-13.11,2.91,0,0-.56,1.94.9,3.8s6.93,5.38,7.65,5.8,9.84,1.07,13.12,1.56c3.28.48,14.03,3.23,14.03,3.23l-2-2.59,6.38,1.13s2.47-.32,1.42-.81-7.98-2.52-7.98-2.52l2.55-.85-6.22-.83.03-.97Z"/>
      <path class="cls-1" d="M345.94,425.72s4.92.89,3.65,4.93-2.23,4.93-2.23,4.93l6.6,3.15,7.65-1.39s3.1.1,0,1.39l-3.1,1.29,7.13-.81s1.94.52,1.41,1.31-8,.85-8,.85l6.07,1.07s.43,1.62-1.36,1.62h-9.63s-3.46-.16-5.29-.97-7.84-3.39-8.47-4.36,5.56-13.01,5.56-13.01Z"/>
      <ellipse class="cls-1" cx="351.7" cy="420.71" rx="4.37" ry="3.88"/>
      <ellipse class="cls-3" cx="355.16" cy="413.83" rx="4.37" ry="3.88"/>
      <ellipse class="cls-5" cx="355.03" cy="413.57" rx="1.8" ry="1.6"/>
      <ellipse class="cls-6" cx="355.51" cy="414.24" rx="2.28" ry=".41"/>
      <ellipse class="cls-6" cx="361.49" cy="411.98" rx="2.28" ry=".41"/>
      <path class="cls-4" d="M353.23,414.24s-8.38,4.94-8.57,5.1-11.85,3.88-11.85,3.88c0,0-8.32.81-9.81,2.51"/>
      <ellipse class="cls-2" cx="330.58" cy="426.17" rx="1.37" ry="1.21"/>
      <ellipse class="cls-2" cx="333.32" cy="425.07" rx="1.37" ry="1.21"/>
      <ellipse class="cls-2" cx="335.7" cy="423.86" rx="1.37" ry="1.21"/>
      <ellipse class="cls-2" cx="338.12" cy="423.86" rx="1.37" ry="1.21"/>
      <ellipse class="cls-2" cx="340.38" cy="422.65" rx="1.37" ry="1.21"/>
      <ellipse class="cls-2" cx="341.74" cy="423.86" rx="1.37" ry="1.21"/>
      <ellipse class="cls-2" cx="340.38" cy="425.72" rx="1.37" ry="1.21"/>
      <ellipse class="cls-2" cx="339.01" cy="426.93" rx="1.37" ry="1.21"/>
      <ellipse class="cls-2" cx="336.16" cy="427.38" rx="1.37" ry="1.21"/>
    </g>
  </g>
</svg>