<?xml version="1.0" encoding="UTF-8"?>
<svg xmlns="http://www.w3.org/2000/svg" version="1.1" viewBox="0 0 1366 768">
  <defs>
    <style>
      .abc-1, .abc-2, .abc-3, .abc-4, .abc-5, .abc-6, .abc-7 {
        stroke: #231f20;
        stroke-miterlimit: 10;
      }

      .abc-1, .abc-8, .abc-6 {
        fill: #70c4a2;
      }

      .abc-1, .abc-3, .abc-4, .abc-7 {
        stroke-linecap: round;
      }

      .abc-2 {
        fill: #0072a2;
      }

      .abc-8, .abc-9 {
        stroke-width: 0px;
      }

      .abc-3 {
        fill: none;
        stroke-width: 5px;
      }

      .abc-4, .abc-5 {
        fill: #fff;
      }

      .abc-9 {
        fill: #231f20;
      }

      .abc-7 {
        fill: #000;
      }
    </style>
  </defs>
  <g id="eggs">
    <g>
      <g>
        <circle class="abc-5" cx="160.78" cy="180.24" r="25.5"/>
        <circle class="abc-9" cx="160.78" cy="180.24" r="10.56"/>
      </g>
      <g>
        <circle class="abc-5" cx="186.28" cy="195.18" r="25.5"/>
        <circle class="abc-9" cx="186.28" cy="195.18" r="10.56"/>
      </g>
      <g>
        <circle class="abc-5" cx="222.34" cy="210.12" r="25.5"/>
        <circle class="abc-9" cx="222.34" cy="210.12" r="10.56"/>
      </g>
      <g>
        <circle class="abc-5" cx="186.28" cy="235.62" r="25.5"/>
        <circle class="abc-9" cx="186.28" cy="235.62" r="10.56"/>
      </g>
      <g>
        <circle class="abc-5" cx="160.78" cy="225.06" r="25.5"/>
        <circle class="abc-9" cx="160.78" cy="225.06" r="10.56"/>
      </g>
      <g>
        <circle class="abc-5" cx="124.72" cy="199.56" r="25.5"/>
        <circle class="abc-9" cx="124.72" cy="199.56" r="10.56"/>
      </g>
      <g>
        <circle class="abc-5" cx="88.66" cy="214.5" r="25.5"/>
        <circle class="abc-9" cx="88.66" cy="214.5" r="10.56"/>
      </g>
      <g>
        <circle class="abc-5" cx="119.78" cy="235.62" r="25.5"/>
        <circle class="abc-9" cx="119.78" cy="235.62" r="10.56"/>
      </g>
      <g>
        <circle class="abc-5" cx="88.66" cy="261.12" r="25.5"/>
        <circle class="abc-9" cx="88.66" cy="261.12" r="10.56"/>
      </g>
      <g>
        <circle class="abc-5" cx="160.78" cy="254.26" r="25.5"/>
        <circle class="abc-9" cx="160.78" cy="254.26" r="10.56"/>
      </g>
      <g>
        <circle class="abc-5" cx="130.34" cy="279.76" r="25.5"/>
        <circle class="abc-9" cx="130.34" cy="279.76" r="10.56"/>
      </g>
      <g>
        <circle class="abc-5" cx="181.34" cy="279.76" r="25.5"/>
        <circle class="abc-9" cx="181.34" cy="279.76" r="10.56"/>
      </g>
      <g>
        <circle class="abc-5" cx="211.78" cy="261.12" r="25.5"/>
        <circle class="abc-9" cx="211.78" cy="261.12" r="10.56"/>
      </g>
    </g>
  </g>
  <g id="egss_with_tadpoles">
    <g>
      <g>
        <circle class="abc-5" cx="453.99" cy="237.03" r="25.5"/>
        <circle class="abc-9" cx="448.99" cy="235.45" r="10.56"/>
        <path class="abc-3" d="M448.99,230.17s14-4.82,18-3.7-1,4,0,10.56-1.88,12.56-7.44,16.56-7.56-1-10.56,0"/>
      </g>
      <g>
        <circle class="abc-5" cx="428.49" cy="203.46" r="25.5"/>
        <circle class="abc-9" cx="423.49" cy="201.87" r="10.56"/>
        <path class="abc-3" d="M423.49,196.59s14-4.82,18-3.7-1,4,0,10.56-1.88,12.56-7.44,16.56-7.56-1-10.56,0"/>
      </g>
      <g>
        <circle class="abc-5" cx="417.57" cy="246.01" r="25.5"/>
        <circle class="abc-9" cx="412.57" cy="244.43" r="10.56"/>
        <path class="abc-3" d="M412.57,239.15s14-4.82,18-3.7-1,4,0,10.56-1.88,12.56-7.44,16.56-7.56-1-10.56,0"/>
      </g>
      <g>
        <circle class="abc-5" cx="392.07" cy="203.46" r="25.5"/>
        <circle class="abc-9" cx="387.07" cy="201.87" r="10.56"/>
        <path class="abc-3" d="M387.07,196.59s14-4.82,18-3.7-1,4,0,10.56-1.88,12.56-7.44,16.56-7.56-1-10.56,0"/>
      </g>
      <g>
        <circle class="abc-5" cx="376.51" cy="240.73" r="25.5"/>
        <circle class="abc-9" cx="371.51" cy="239.15" r="10.56"/>
        <path class="abc-3" d="M371.51,233.87s14-4.82,18-3.7-1,4,0,10.56-1.88,12.56-7.44,16.56-7.56-1-10.56,0"/>
      </g>
      <g>
        <circle class="abc-5" cx="351.01" cy="284.37" r="25.5"/>
        <circle class="abc-9" cx="346.01" cy="282.79" r="10.56"/>
        <path class="abc-3" d="M346.01,277.51s14-4.82,18-3.7-1,4,0,10.56-1.88,12.56-7.44,16.56-7.56-1-10.56,0"/>
      </g>
      <g>
        <circle class="abc-5" cx="387.07" cy="282.79" r="25.5"/>
        <circle class="abc-9" cx="382.07" cy="281.2" r="10.56"/>
        <path class="abc-3" d="M382.07,275.92s14-4.82,18-3.7-1,4,0,10.56-1.88,12.56-7.44,16.56-7.56-1-10.56,0"/>
      </g>
      <g>
        <circle class="abc-5" cx="438.43" cy="281.2" r="25.5"/>
        <circle class="abc-9" cx="433.43" cy="279.62" r="10.56"/>
        <path class="abc-3" d="M433.43,274.34s14-4.82,18-3.7c4,1.12-1,4,0,10.56s-1.88,12.56-7.44,16.56-7.56-1-10.56,0"/>
      </g>
    </g>
  </g>
  <g id="tadpole">
    <g>
      <path class="abc-1" d="M594.61,272.25s-12.66-11-10.66-22,19.31-36,36.16-36,59-4,87.42-4,41.42,6,64.42,13,38,13,48,18,9.27,2.42,16,5c26.91,10.31,65.08,24.8,0,18-13.27-1.39-96.42-1-97.71-5s-51.58-4-51.58-4l-46.06,17s-26.12,8-36.06,4l-9.94-4Z"/>
      <ellipse class="abc-9" cx="605.94" cy="246.75" rx="5.02" ry="8.5"/>
    </g>
  </g>
  <g id="tadpole_with_legs">
    <g>
      <path class="abc-1" d="M1134.92,223.2s-20.34,3.2-15.07,17.74c5.27,14.54,9.21,17.74,9.21,17.74l-27.29,11.34-31.64-5s-12.81.35,0,5l12.81,4.65-29.49-2.91s-8.01,1.88-5.83,4.72,33.06,3.06,33.06,3.06l-25.11,3.85s-1.79,5.81,5.63,5.81c7.42,0,39.82,0,39.82,0,0,0,14.32-.58,21.85-3.49s32.4-12.21,35.03-15.7-22.98-46.81-22.98-46.81Z"/>
      <path class="abc-1" d="M1003.44,255.83s-10.4-13.16-6.39-23.59c4.01-10.44,25.65-31.79,42.2-28.67,16.55,3.12,58.72,7.01,86.65,12.28,27.93,5.27,39.59,13.58,60.89,24.72,21.3,11.14,34.93,19.82,43.83,26.59,8.9,6.77,8.19,4.99,14.8,7.88,37.14,16.22,86.53,38.53-3.34,17.69-13-3.01-94.56-18.86-95.09-23.03s-49.94-13.49-49.94-13.49l-48.41,8.16s-27.15,3.02-36.18-2.76l-9.02-5.77Z"/>
      <ellipse class="abc-9" cx="1019.3" cy="232.87" rx="8.5" ry="5.02" transform="translate(601.45 1191.3) rotate(-79.31)"/>
      <path class="abc-3" d="M1097.06,256.19"/>
      <path class="abc-1" d="M1155.27,245.9s-20.34,3.2-15.07,17.74c5.27,14.54,9.21,17.74,9.21,17.74l-27.29,11.34-31.64-5s-12.81.35,0,5l12.81,4.65-29.49-2.91s-8.01,1.88-5.83,4.72,33.06,3.06,33.06,3.06l-25.11,3.85s-1.79,5.81,5.63,5.81c7.42,0,39.82,0,39.82,0,0,0,14.32-.58,21.85-3.49s32.4-12.21,35.03-15.7-22.98-46.81-22.98-46.81Z"/>
    </g>
  </g>
  <g id="froglet">
    <g>
      <path class="abc-1" d="M464.61,546.24l-4.52-9.3s10.55-2.91,10.55-6.4,30.87,6.69,17.92,2.33c-6.31-2.13-54.84-27.33-54.84-27.33,0,0-23.63-8.14-26.51-7.56s-40.55-.03-40.55-.03c0,0-14.32-5.79-23.36-11.02-9.04-5.23-33.58-18.8-36.75-19.58s-15.99-11.46-15.99-11.46c0,0-4.52,4.41-13.56,3.48s-9.79,4.91-9.79,4.91l-28.52,3.07s-12.65,6.78-5.63,15.51c7.02,8.72,42.43,37.21,42.43,37.21l11.3,13.96s-18.08-.58-26.37,4.07c-8.29,4.65-18.08,8.14-9.04,8.14,9.04,0,15.07,1.16,18.08,0s-17.33,6.4-17.33,6.4c0,0-9.04,4.65-4.52,6.4,4.52,1.74,14.32-3.49,18.08-4.07s8.29-4.65,12.06-4.65-1.51,8.72-1.51,8.72c0,0,11.3-6.4,17.33-6.4s53.39,22.68,57.21,22.68,92.73-.58,105.53-16.28"/>
      <path class="abc-1" d="M354.6,575.31s20.99-23.24,69.32-35.47c94.15-23.83,309.83-144.73,126.81-13.66,0,0-70.3,31.11-76.33,37.8s-28.63,19.34-31.64,20.86-40.69,3.85-54.25,5.59c-13.56,1.74-58.01,11.63-58.01,11.63l8.29-9.3-26.37,4.07s-10.22-1.16-5.86-2.91c4.36-1.74,32.99-9.08,32.99-9.08l-10.55-3.06,25.73-2.98-.11-3.49Z"/>
      <path class="abc-1" d="M312.41,528.5s-20.34,3.2-15.07,17.74,9.21,17.74,9.21,17.74l-27.29,11.34-31.64-5s-12.81.35,0,5l12.81,4.65-29.49-2.91s-8.01,1.88-5.83,4.72,33.06,3.06,33.06,3.06l-25.11,3.85s-1.79,5.81,5.63,5.81,39.82,0,39.82,0c0,0,14.32-.58,21.85-3.49s32.4-12.21,35.03-15.7-22.98-46.81-22.98-46.81Z"/>
      <ellipse class="abc-1" cx="288.59" cy="510.47" rx="18.08" ry="13.96"/>
      <ellipse class="abc-4" cx="274.27" cy="485.71" rx="18.08" ry="13.96"/>
      <ellipse class="abc-7" cx="274.83" cy="484.8" rx="7.45" ry="5.75"/>
      <ellipse class="abc-8" cx="272.86" cy="487.19" rx="9.42" ry="1.48"/>
      <path class="abc-6" d="M282.27,487.19s34.66,17.76,35.41,18.34,48.97,13.96,48.97,13.96c0,0,34.38,2.91,40.55,9.01"/>
      <ellipse class="abc-2" cx="375.89" cy="530.1" rx="5.65" ry="4.36"/>
      <ellipse class="abc-2" cx="364.59" cy="526.18" rx="5.65" ry="4.36"/>
      <ellipse class="abc-2" cx="354.71" cy="521.82" rx="5.65" ry="4.36"/>
      <ellipse class="abc-2" cx="344.74" cy="521.82" rx="5.65" ry="4.36"/>
      <ellipse class="abc-2" cx="335.39" cy="517.46" rx="5.65" ry="4.36"/>
      <ellipse class="abc-2" cx="329.74" cy="521.82" rx="5.65" ry="4.36"/>
      <ellipse class="abc-2" cx="335.39" cy="528.5" rx="5.65" ry="4.36"/>
      <ellipse class="abc-2" cx="341.04" cy="532.86" rx="5.65" ry="4.36"/>
      <ellipse class="abc-2" cx="352.81" cy="534.46" rx="5.65" ry="4.36"/>
    </g>
  </g>
  <g id="frog">
    <g>
      <path class="abc-1" d="M1083.05,551.89l-5.17-11.73s12.06-3.66,12.06-8.06,0-2.2-6.03-7.33c-6.03-5.13-36.18-24.19-36.18-24.19,0,0-27.02-10.26-30.31-9.53-3.29.73-46.36-.04-46.36-.04,0,0-16.37-7.29-26.7-13.89-10.34-6.6-38.39-23.7-42.02-24.68-3.63-.98-18.28-14.45-18.28-14.45,0,0-5.17,5.56-15.51,4.38-10.34-1.18-11.2,6.19-11.2,6.19l-32.61,3.87s-14.46,8.55-6.43,19.55c8.03,10.99,48.51,46.91,48.51,46.91l12.92,17.59s-20.67-.73-30.15,5.13c-9.48,5.86-20.67,10.26-10.34,10.26s17.23,1.47,20.67,0c3.45-1.47-19.81,8.06-19.81,8.06,0,0-10.34,5.86-5.17,8.06,5.17,2.2,16.37-4.4,20.67-5.13,4.31-.73,9.48-5.86,13.78-5.86s-1.72,10.99-1.72,10.99c0,0,12.92-8.06,19.81-8.06,6.89,0,61.04,28.59,65.41,28.59s106.01-.73,120.66-20.52"/>
      <path class="abc-1" d="M957.29,588.54s23.26-56.44,79.25-44.71c55.99,11.73,61.97,13.19,61.97,13.19,0,0,2.63,8.8-4.26,17.22-6.89,8.43-32.73,24.38-36.18,26.3-3.45,1.92-46.52,4.85-62.02,7.05-15.51,2.2-66.33,14.66-66.33,14.66l9.48-11.73-30.15,5.13s-11.68-1.47-6.7-3.66c4.98-2.2,37.71-11.45,37.71-11.45l-12.06-3.85,29.41-3.75-.13-4.4Z"/>
      <path class="abc-1" d="M909.05,529.53s-23.26,4.03-17.23,22.36c6.03,18.32,10.52,22.36,10.52,22.36l-31.2,14.29-36.18-6.3s-14.64.44,0,6.3l14.64,5.86-33.71-3.66s-9.15,2.37-6.67,5.95c2.48,3.58,37.8,3.85,37.8,3.85l-28.7,4.85s-2.05,7.33,6.43,7.33c8.49,0,45.53,0,45.53,0,0,0,16.37-.73,24.98-4.4,8.61-3.66,37.04-15.39,40.05-19.79,3.01-4.4-26.27-59-26.27-59Z"/>
      <ellipse class="abc-1" cx="881.81" cy="506.81" rx="20.67" ry="17.59"/>
      <ellipse class="abc-4" cx="865.44" cy="475.59" rx="20.67" ry="17.59"/>
      <ellipse class="abc-7" cx="866.08" cy="474.44" rx="8.51" ry="7.25"/>
      <ellipse class="abc-8" cx="863.82" cy="477.46" rx="10.77" ry="1.87"/>
      <ellipse class="abc-8" cx="835.53" cy="467.19" rx="10.77" ry="1.87"/>
      <path class="abc-6" d="M874.59,477.46s39.62,22.39,40.49,23.12c.86.73,55.99,17.59,55.99,17.59,0,0,39.31,3.66,46.36,11.36"/>
      <ellipse class="abc-2" cx="981.62" cy="531.55" rx="6.46" ry="5.5"/>
      <ellipse class="abc-2" cx="968.7" cy="526.6" rx="6.46" ry="5.5"/>
      <ellipse class="abc-2" cx="957.41" cy="521.1" rx="6.46" ry="5.5"/>
      <ellipse class="abc-2" cx="946.01" cy="521.1" rx="6.46" ry="5.5"/>
      <ellipse class="abc-2" cx="935.32" cy="515.6" rx="6.46" ry="5.5"/>
      <ellipse class="abc-2" cx="928.86" cy="521.1" rx="6.46" ry="5.5"/>
      <ellipse class="abc-2" cx="935.32" cy="529.53" rx="6.46" ry="5.5"/>
      <ellipse class="abc-2" cx="941.78" cy="535.03" rx="6.46" ry="5.5"/>
      <ellipse class="abc-2" cx="955.24" cy="537.04" rx="6.46" ry="5.5"/>
    </g>
  </g>
</svg>